<svg xmlns="http://www.w3.org/2000/svg" viewBox="0 0 64 64">
  <rect width="64" height="64" rx="12" fill="#0a0a0a"/>
  <path d="M22 58 L22 34 Q22 20 30 18 Q36 17 38 20 L38 10 Q38 6 42 6 Q46 6 46 10 L46 20 Q54 24 54 34 L54 58 Z" fill="#f5f5f5"/>
  <path d="M40 8 L42 14 L44 8 Z" fill="#bbbbbb"/>
  <circle cx="41" cy="24" r="3.2" fill="#0a0a0a"/>
  <circle cx="41.9" cy="23" r="0.9" fill="#fff"/>
  <ellipse cx="45.5" cy="30" rx="3" ry="2" fill="#0a0a0a"/>
  <polyline points="24,50 28,46 32,48 36,42 40,44 44,36 48,38 52,30" fill="none" stroke="#22c55e" stroke-width="2.2" stroke-linecap="round" stroke-linejoin="round"/>
  <circle cx="52" cy="30" r="2" fill="#22c55e"/>
</svg>
